<?xml version="1.0" encoding="UTF-8"?>
<svg id="Calque_1" xmlns="http://www.w3.org/2000/svg" version="1.1" xmlns:xlink="http://www.w3.org/1999/xlink" viewBox="0 0 512 512">
  <!-- Generator: Adobe Illustrator 30.2.1, SVG Export Plug-In . SVG Version: 2.1.1 Build 1)  -->
  <defs>
    <style>
      .st0 {
        fill: #08080e;
      }

      .st1 {
        fill: url(#Dégradé_sans_nom_80);
      }

      .st2 {
        fill: url(#Dégradé_sans_nom_6);
        stroke: url(#Dégradé_sans_nom_61);
      }

      .st2, .st3 {
        stroke-miterlimit: 10;
      }

      .st4 {
        isolation: isolate;
      }

      .st3 {
        fill: url(#Dégradé_sans_nom_62);
        stroke: url(#Dégradé_sans_nom_63);
      }

      .st5 {
        fill: url(#Dégradé_sans_nom_31);
      }
    </style>
    <radialGradient id="Dégradé_sans_nom_80" data-name="Dégradé sans nom 80" cx="-492.04" cy="505.01" fx="-492.04" fy="505.01" r=".7" gradientTransform="translate(251923 259078) scale(512 -512)" gradientUnits="userSpaceOnUse">
      <stop offset="0" stop-color="#fff" stop-opacity=".4"/>
      <stop offset="1" stop-color="#fff" stop-opacity="0"/>
    </radialGradient>
    <radialGradient id="Dégradé_sans_nom_31" data-name="Dégradé sans nom 31" cx="-491.04" cy="505.01" fx="-491.04" fy="505.01" r=".7" gradientTransform="translate(251923 259078) scale(512 -512)" gradientUnits="userSpaceOnUse">
      <stop offset="0" stop-color="#fff" stop-opacity=".35"/>
      <stop offset="1" stop-color="#fff" stop-opacity="0"/>
    </radialGradient>
    <linearGradient id="Dégradé_sans_nom_6" data-name="Dégradé sans nom 6" x1="164.99" y1="145.35" x2="164.99" y2="415.44" gradientUnits="userSpaceOnUse">
      <stop offset="0" stop-color="#fff"/>
      <stop offset=".25" stop-color="#e8e8e8"/>
      <stop offset=".5" stop-color="#b8b8b8"/>
      <stop offset=".72" stop-color="#8e8e8e"/>
      <stop offset="1" stop-color="#c8c8c8"/>
    </linearGradient>
    <linearGradient id="Dégradé_sans_nom_61" data-name="Dégradé sans nom 6" x1="94.09" y1="282.88" x2="235.9" y2="282.88" xlink:href="#Dégradé_sans_nom_6"/>
    <linearGradient id="Dégradé_sans_nom_62" data-name="Dégradé sans nom 6" x1="326.68" y1="145.35" x2="326.68" y2="415.44" xlink:href="#Dégradé_sans_nom_6"/>
    <linearGradient id="Dégradé_sans_nom_63" data-name="Dégradé sans nom 6" x1="235.44" y1="256" x2="417.96" y2="256" xlink:href="#Dégradé_sans_nom_6"/>
  </defs>
  <rect class="st0" width="512" height="512" rx="55" ry="55"/>
  <rect class="st1" width="512" height="512" rx="55" ry="55"/>
  <path class="st5" d="M108,0h296c59.61,0,108,48.39,108,108v350.13c0,29.73-24.14,53.87-53.87,53.87H108c-59.61,0-108-48.39-108-108V108C0,48.39,48.39,0,108,0Z"/>
  <g class="st4">
    <path class="st2" d="M235.4,285.2c0,2.18-.27,7.09-.27,7.09h-101.79c1.09,24.29,12.28,35.75,34.38,35.75,14.74,0,27.84-8.46,30.84-18.28h34.11c-10.37,31.93-32.2,47.48-66.04,47.48-44.75,0-72.04-30.84-72.04-74.23s29.47-74.5,72.04-74.5,68.77,34.93,68.77,76.68ZM196.38,267.74c-3.82-21.29-13.1-30.02-31.11-30.02s-30.29,11.46-31.93,30.02h63.04Z"/>
    <path class="st3" d="M415.78,224.07h-41.48c-3-19.1-21.29-34.11-42.57-34.11-34.93,0-52.94,27.56-52.94,66.86,0,36.57,17.19,65.22,52.94,65.22,24.56,0,40.66-15.83,44.21-43.66h41.48c-4.37,49.12-37.93,79.69-85.69,79.69-59.49,0-95.79-44.21-95.79-101.24s35.48-102.88,95.79-102.88c43.66,0,79.14,26.2,84.05,70.13Z"/>
  </g>
</svg>